<svg width="44" height="44" viewBox="0 0 44 44" fill="none" xmlns="http://www.w3.org/2000/svg">
<path d="M2 3.11554H40.9189L40.5392 41.0498L2.75939 39.6552L2 3.11554Z" fill="#FF0000"/>
<path d="M2.27344 2.55286C15.0213 2.55286 27.7731 2.73729 40.5234 2.73729" stroke="#010101" stroke-width="3" stroke-linecap="round"/>
<path d="M2 39.994C11.2903 39.994 20.5929 39.8144 29.8819 40.0145C33.9539 40.1022 37.9437 41.4695 42 41.4695" stroke="#010101" stroke-width="3" stroke-linecap="round"/>
<path d="M41.0247 3.29132C40.6438 15.7458 40.5247 28.0912 40.5247 40.5475" stroke="#010101" stroke-width="3" stroke-linecap="round"/>
<path d="M2.02554 2C2.02554 8.04497 2.00186 14.0913 2.02554 20.1363C2.03528 22.6236 2.30271 25.0741 2.37276 27.5547C2.53464 33.2871 2.40054 36.2612 2.40054 42" stroke="#010101" stroke-width="3" stroke-linecap="round"/>
<path d="M13 13.5586C17.7417 16.3461 22.238 19.7285 25.534 24.1826C26.7334 25.8034 27.9105 27.4353 29.0621 29.0901C29.3444 29.4958 29.8009 30.5788 30.3089 30.7481" stroke="white" stroke-width="3" stroke-linecap="round"/>
<path d="M29.473 13.0811C29.0272 13.4155 28.7243 14.036 28.4252 14.487C27.5984 15.7336 26.7395 16.9449 25.8057 18.1145C23.7805 20.6511 21.6458 23.0713 19.4326 25.4426C17.951 27.03 16.2583 28.4003 14.5251 29.7068C14.0817 30.0411 13.2644 30.4059 13.1191 30.9868" stroke="white" stroke-width="3" stroke-linecap="round"/>
</svg>
