<?xml version="1.0" encoding="UTF-8"?>
<svg id="Layer_1" data-name="Layer 1" xmlns="http://www.w3.org/2000/svg" viewBox="0 0 10721 8371">
  <defs>
    <style>
      .cls-1 {
        fill: #030303;
      }

      .cls-2 {
        fill: #016408;
      }

      .cls-3 {
        fill: #fdfdfd;
      }

      .cls-4 {
        fill: transparent;
      }
    </style>
  </defs>
  <path class="cls-4" d="M10721,0v8371H0V0h10721ZM10326.49,114.69c-16.87-16.61-115.57-32.35-145.27-34.6-195.18-14.8-395.71-32.45-591.1-40.49-229.68-9.45-495.22,41.46-727.98,56.27-577.46,36.74-1164.09-.06-1742.45-8.25-936.45-13.26-1870.84,1.88-2806.17,16.65-706.56,11.16-1414.44,6.91-2118.86,55.72-539.87,37.4-1072.28,133.35-1615.36,128.17-92.76-.88-145.5-25.37-231.32,39.85-70.72,53.74-71.59,111.51-76.79,195.55-7.82,126.48-31.99,254.62-39.67,383.58-4.92,82.62,1.27,167.24.67,247.86-11.64,1567.55-37.01,3135.89,15.32,4701.85,10.28,307.61,32.45,619.42,33.03,927.1.1,52.03-26.44,104.05-31.86,152.77-4.38,39.38,1.68,79.94-.51,119.41-16.45,295.64-42.29,797.02,57.67,1068.99,10.47,28.47,54.86,135.9,69.62,154.24,35.04,43.54,137.95,45.42,188.49,44.02,115.75-3.22,228.51-30.99,343.53-40.23,441.62-35.49,899.36-30.53,1342.96-56.13,820.22-47.33,1632.46-187.35,2454.15-208.12,611.15-15.45,1220.78,17.17,1830.8,8,1149.21-17.29,2269.38,26.57,3414.02,96.35,42.65,2.6,107.17,11.01,149.99,17.9,109.69,17.66,207.72,76.41,313.78-2,67.27-49.74,73.5-91.93,68.28-172.19-7.24-111.25-14.8-240.87-25.33-350.46-17.65-183.85-84.39-368.95-94.83-568.77-24.5-468.96-28.81-937.64-56.12-1407-46.63-801.39,17.44-1603.05,31.73-2406.97,14.01-787.85,2.69-1578.43,23.98-2366.59,6.12-226.4,51.07-487.3-11.21-707.67-3.72-13.16-13.73-35.47-23.21-44.8Z"/>
  <path class="cls-1" d="M10326.49,114.69c9.48,9.33,19.49,31.64,23.21,44.8,62.28,220.36,17.32,481.26,11.21,707.67-21.3,788.16-9.98,1578.74-23.98,2366.59-14.29,803.92-78.36,1605.58-31.73,2406.97,27.31,469.37,31.62,938.04,56.12,1407,10.44,199.81,77.18,384.92,94.83,568.77,10.52,109.59,18.09,239.21,25.33,350.46,5.22,80.26-1,122.46-68.28,172.19-106.06,78.41-204.09,19.66-313.78,2-42.82-6.89-107.34-15.3-149.99-17.9-1144.63-69.78-2264.8-113.64-3414.02-96.35-610.03,9.18-1219.66-23.45-1830.8-8-821.69,20.78-1633.93,160.8-2454.15,208.12-443.61,25.6-901.34,20.64-1342.96,56.13-115.01,9.24-227.78,37-343.53,40.23-50.54,1.41-153.46-.47-188.49-44.02-14.76-18.34-59.16-125.77-69.62-154.24-99.96-271.97-74.12-773.34-57.67-1068.99,2.2-39.48-3.87-80.03.51-119.41,5.42-48.72,31.96-100.75,31.86-152.77-.58-307.68-22.75-619.49-33.03-927.1-52.33-1565.96-26.96-3134.29-15.32-4701.85.6-80.61-5.59-165.24-.67-247.86,7.68-128.95,31.85-257.1,39.67-383.58,5.2-84.04,6.07-141.8,76.79-195.55,85.82-65.22,138.55-40.73,231.32-39.85,543.08,5.18,1075.49-90.77,1615.36-128.17,704.42-48.8,1412.3-44.56,2118.86-55.72,935.32-14.77,1869.72-29.91,2806.17-16.65,578.36,8.19,1164.99,44.98,1742.45,8.25,232.76-14.81,498.31-65.72,727.98-56.27,195.39,8.04,395.92,25.69,591.1,40.49,29.7,2.25,128.4,18,145.27,34.6ZM10033.45,7707.4v-115.93c0-4.83-28.45-71.81-31.63-88.3-39.36-203.86-44.07-418.32-72.72-622.86-21-149.97,21.84-354.56.83-504.53-27.31-194.98-9.81-398.94-32.15-591.48-53.19-458.53-35.15-919.44-32.56-1383.25,78.45-1173.55,19.92-2361.02,88.6-3533.23-11.12-124.36,13.77-270.73-.19-392.24-1.42-12.36-5.04-33.41-16.05-40.04-22.32-13.44-135.14,25.62-164.35,35.82-1378.98,150.91-2792.98,65.9-4189.23,72.66-1509.65-12.07-3029.92-55.07-4508.31,152-87.98,12.32-179.93,1.99-279.82,15.99-58.42,8.19-149.41-31.45-156.78,43.09-12.39,125.37,7.46,259.33,8.79,383.9,7.04,659.26,5.8,1316.93,15.09,1975.72,72.01,576.51-46.54,1236.93,32.96,1805.94,44.41,317.85-47.53,725.03,16.14,1047.23l-.16,1352.17c-68.31,160.05-62.1,339.05-57.15,511.32,1.84,64,40.55,55.53,92.61,51.79,180.06-12.92,364.02-29.5,543.47-40.12,201.96-11.94,408.77-4.28,607.47-32.11,168.28-23.57,401.21,9.39,576.46-15.16,228.77-32.04,467.08-40.83,694.71-72.79,76.15-10.69,180.55-4.42,256.67-15.16,353.08-49.81,704.8-95.11,1063.31-87.95,685.34-58.46,1386.68,28.19,2069.67-16.97,807.61,4.65,1618.8-13.92,2414.9,48.62,264.43,20.77,528.86,19.56,791.15,56.3,79.9,11.19,185.38-9.15,268.24-.42Z"/>
  <path class="cls-2" d="M10033.45,7707.4c-82.86-8.74-188.34,11.61-268.24.42-262.29-36.74-526.72-35.52-791.15-56.3-796.1-62.54-1607.29-43.97-2414.9-48.62-682.99,45.16-1384.33-41.48-2069.67,16.97-358.5-7.16-710.22,38.13-1063.31,87.95-76.12,10.74-180.51,4.46-256.67,15.16-227.63,31.96-465.94,40.75-694.71,72.79-175.25,24.55-408.18-8.41-576.46,15.16-198.7,27.83-405.52,20.17-607.47,32.11-179.45,10.61-363.41,27.19-543.47,40.12-52.06,3.74-90.77,12.21-92.61-51.79-4.95-172.27-11.15-351.26,57.15-511.32l.16-1352.17c-63.67-322.2,28.27-729.38-16.14-1047.23-79.5-569.01,39.04-1229.43-32.96-1805.94-9.29-658.78-8.05-1316.45-15.09-1975.72-1.33-124.57-21.18-258.53-8.79-383.9,7.37-74.55,98.36-34.9,156.78-43.09,99.89-14,191.84-3.67,279.82-15.99,1478.39-207.06,2998.66-164.07,4508.31-152,1396.25-6.75,2810.24,78.25,4189.23-72.66,29.2-10.2,142.03-49.26,164.35-35.82,11.01,6.63,14.63,27.68,16.05,40.04,13.96,121.51-10.94,267.88.19,392.24-68.68,1172.21-10.15,2359.68-88.6,3533.23-2.59,463.81-20.63,924.72,32.56,1383.25,22.33,192.54,4.84,396.5,32.15,591.48,21,149.97-21.84,354.56-.83,504.53,28.64,204.54,33.36,419,72.72,622.86,3.18,16.49,31.63,83.46,31.63,88.3v115.93ZM5240.9,2067.35c33.09-43.64,11.99-62.27-33.94-82.89-167.68-75.31-543.76,37.33-727.75,76.44-208.76,44.38-466.99,122.32-670.7,144.77-84.8,9.35-244.85-20.71-310.94,40.83-4.48,4.17-60.52,99-62.52,105.38-13.59,43.46-9.78,116.14,33.12,140,22.16,12.32,76.67,23.75,85.53,42.59,1.68,3.57,18.4,68.76,19.54,76.4,18.44,124.21,21.11,257.11,32.54,383.21,68.38,754.27,85.86,1517.5,191.31,2263.21,3.27,23.16-3.05,48.71.86,71.1,19.3,110.45,65.37,253.42,171.13,308.57,270.69,141.17,705.07,21.54,999.39,7.38,112.29-5.4,225.48,7.09,336.15,8.2,76.26.77,347.41-2.82,306.06-138.21-12.97-42.46-153.51-86.24-194.22-86.25-61.49,0-124.41,51.05-167.52,57.01-126.56,17.5-305.26-7.31-440.37-.66-156.2,7.7-314.73,38.44-471.11,48.53-49.58,3.2-70.08,3.43-95.26-41.22-51.6-91.49-80.69-390.05-92.81-506.83-16.78-161.63-19.21-325.55-32.02-487.67-5.1-64.48-23.02-138.19-22.59-208.14.06-9.36,4.52-18.31,7.33-27.01,29.03-3.04,54.92,12.91,83.23,15.27,263,21.9,759.77,49.36,1005.34-17.84,56.43-15.44,183.46-75.9,88.69-132.8-89.89-53.97-213.56-29.03-310.01-16.58-246.13,31.77-492.89,12.23-736.57-16.15-46.62-5.43-152.9,11.41-162.9-52.96-3.91-25.17,1.7-53.42-.63-79.32-39.92-443.59-39.71-897.43-104.99-1334.14-12.4-82.98-32.7-165.27-46.26-248.05,6.09-20.12,95.02-24.99,114.89-29.4,275.28-61.17,556.78-130.6,833.73-189.61,77.14-16.44,333.09-38.83,374.28-93.16ZM6034.49,2041.07c-98.32,3.29-188.05,26.99-165.94,145.25,3.94,21.09,25.24,33.46,29.67,50.27,6.38,24.16-1.06,52.21,2.56,77.39,51.53,358.5-9.05,737.89-32.49,1096.12-47.53,726.27-85.34,1461.66-40.21,2190.66,5.12,82.72-11.96,243.34,41.25,310.54,37.01,46.74,162.8,67.33,219.11,61.57,26.03-2.66,110.05-24.48,130.73-37.16,56.92-34.9,54.79-78.76,30.42-132.85-36.24-80.43-23.72-67.65-29.75-154.14-25.22-361.78-13.73-724.69-16.29-1087.81l13.16-27.29c157.17,43.49,317.14,83.08,477.28,105.25l28.61,27.36c72.78,222.77,121.62,454.15,185.47,678.01,21.24,74.49,80.61,308.61,122.92,356.78,54.72,62.3,262.54,64.34,328.44,23.83,16.87-10.37,40.66-38.83,36.56-60.2-58.62-163.39-93.3-334.22-138.83-501.62-38.31-140.86-109.32-320.7-131.91-459.66-2.89-17.78-5.37-43.62-.27-60.53,5.95-19.71,38.13-23.46,29.18-55.79-7.01-25.32-46.21-35.24-63.15-49.38-31.15-25.99-44.51-122.56-57.97-165.89-187.22-602.48-368.55-1211.64-484.71-1833.88l-39.97-423.75c-24.08-59.11-179.93-72.51-236.53-67.4-25.28,2.29-46.51,17.87-71.83,16.64-48.78-2.37-102.55-24.39-165.53-22.29ZM7086.08,2379.87c21.16,20.33,64.92,22.19,77.81,38.12,11.56,14.27,18.66,75.14,22.42,97.5,22.23,132.19,20.8,265.62,32.91,398.83,60.48,665.55,132.76,1335.06,239.3,1991.36,33.62,207.14,72.36,515.77,148.53,706.96,49.37,123.91,201.49,135.56,319.33,119.49,99.46-13.56,206.73-102.64,306.95-132.77,149.97-45.09,267.09,8.12,412.9-2.83,251.61-18.88,628.51-95.51,858.72-196.6,54.85-24.09,222.74-104.86,117.04-171.3-65.04-40.88-211.17-28.14-281.63-1.29-178.54,68.02-325.27,136.44-518.5,169.06-230.37,38.89-484.85-16.75-709.29,34.22-27,6.13-137.23,55.72-154.26,30.62-20.68-109.46-52.5-216.8-73.6-326.12-146.03-756.34-203.73-1555.27-281.58-2324.85-17.59-173.86-23.03-348.55-66.12-517.53-18.05-70.8-41.68-141.83-105.76-182.06-100.89-63.35-383.38-61.61-380.48,100.03.49,27.23,4.99,94.45,9.04,119.5,2.13,13.2,16.97,40.72,26.29,49.68ZM3169.28,2842.95c-201.36-231.69-436.97-371.66-707.88-511.35-207.92-107.21-527.58-282.82-760.35-210.71-42.12,13.05-95.4,47.03-106.64,93.23-6.96,28.62.08,148.1,10.6,174.4,20.19,50.5,102.03,48.95,112.22,95.65,10.83,49.6,10.5,116.26,18.05,165.84,139.06,913.09,180.57,1846.13,278.43,2767.74,3.93,37.05-3.51,73.85,9.1,110.84-157.68-12.81-339.66,95.18-161.58,235.4,71.03,55.93,99.84,50.89,177.59,76.39,52.33,17.16,39.08,55.92,57.76,102.14,39.65,98.1,162.59,114.38,257.43,101.43,17.72-2.42,92.84-26.76,107.62-36.29,63.9-41.22-17.44-104.74,16.56-159.34,63.38-17.57,129.7-26.15,192.06-47.78,403.64-140.02,716.54-562.57,852.75-954.12,135.68-390.02,126.99-842.75,32.36-1242.23-69.84-294.83-188.01-533.31-386.08-761.22Z"/>
  <path class="cls-3" d="M3169.28,2842.95c198.07,227.91,316.24,466.39,386.08,761.22,94.63,399.48,103.32,852.21-32.36,1242.23-136.21,391.55-449.11,814.11-852.75,954.12-62.35,21.63-128.67,30.22-192.06,47.78-34,54.6,47.34,118.12-16.56,159.34-14.77,9.53-89.89,33.87-107.62,36.29-94.85,12.95-217.78-3.33-257.43-101.43-18.68-46.23-5.43-84.98-57.76-102.14-77.75-25.5-106.56-20.46-177.59-76.39-178.08-140.21,3.9-248.21,161.58-235.4-12.6-36.99-5.16-73.79-9.1-110.84-97.86-921.6-139.37-1854.64-278.43-2767.74-7.55-49.58-7.22-116.23-18.05-165.84-10.19-46.7-92.03-45.15-112.22-95.65-10.52-26.3-17.56-145.78-10.6-174.4,11.23-46.2,64.52-80.19,106.64-93.23,232.77-72.11,552.44,103.51,760.35,210.71,270.92,139.69,506.52,279.66,707.88,511.35ZM2102.67,2422.59c23.27,209.82,63.07,418.05,87.8,627.68,92.16,781.07,114.85,1570.17,208.05,2350.41,9.49,79.45,25.67,158.81,33.19,238.62,9.79,31.75,99.76-23.7,121.06-36.21,768.66-451.21,834.5-1739.91,430.65-2450.36-201.93-355.24-513.01-568.67-880.76-730.15Z"/>
  <path class="cls-3" d="M6034.49,2041.07c62.98-2.11,116.74,19.91,165.53,22.29,25.32,1.23,46.55-14.35,71.83-16.64,56.6-5.12,212.44,8.29,236.53,67.4l39.97,423.75c116.16,622.24,297.49,1231.4,484.71,1833.88,13.46,43.33,26.82,139.9,57.97,165.89,16.95,14.13,56.14,24.06,63.15,49.38,8.95,32.33-23.23,36.09-29.18,55.79-5.1,16.91-2.62,42.75.27,60.53,22.59,138.96,93.6,318.8,131.91,459.66,45.53,167.4,80.21,338.23,138.83,501.62,4.1,21.38-19.69,49.83-36.56,60.2-65.89,40.51-273.72,38.46-328.44-23.83-42.31-48.17-101.68-282.29-122.92-356.78-63.84-223.86-112.69-455.24-185.47-678.01l-28.61-27.36c-160.14-22.17-320.12-61.76-477.28-105.25l-13.16,27.29c2.56,363.13-8.93,726.04,16.29,1087.81,6.03,86.49-6.49,73.71,29.75,154.14,24.37,54.09,26.49,97.95-30.42,132.85-20.68,12.68-104.7,34.5-130.73,37.16-56.31,5.76-182.1-14.83-219.11-61.57-53.21-67.2-36.13-227.82-41.25-310.54-45.13-729.01-7.32-1464.4,40.21-2190.66,23.44-358.22,84.01-737.61,32.49-1096.12-3.62-25.18,3.81-53.23-2.56-77.39-4.44-16.81-25.73-29.18-29.67-50.27-22.11-118.26,67.62-141.96,165.94-145.25ZM6299.84,3214.03c-9.75-12.42-14.6.02-15.99,11.86-10.99,93.17-9.39,186.97-16.02,279.93-16.07,225.44-40.47,453.05-48.22,679.34-.92,26.95-4.67,116.4,1.63,134.95,4.51,13.28,17.79,15.17,28.83,19.14,38.74,13.96,378.94,104,393.56,90.05l-343.78-1215.28Z"/>
  <path class="cls-3" d="M5240.9,2067.35c-41.19,54.33-297.13,76.72-374.28,93.16-276.95,59.01-558.45,128.45-833.73,189.61-19.87,4.41-108.8,9.28-114.89,29.4,13.56,82.78,33.86,165.07,46.26,248.05,65.28,436.71,65.07,890.56,104.99,1334.14,2.33,25.9-3.28,54.15.63,79.32,10,64.38,116.28,47.53,162.9,52.96,243.68,28.38,490.44,47.92,736.57,16.15,96.44-12.45,220.11-37.39,310.01,16.58,94.77,56.9-32.26,117.36-88.69,132.8-245.57,67.21-742.34,39.74-1005.34,17.84-28.31-2.36-54.2-18.31-83.23-15.27-2.81,8.7-7.27,17.65-7.33,27.01-.43,69.94,17.49,143.65,22.59,208.14,12.82,162.12,15.24,326.03,32.02,487.67,12.12,116.78,41.21,415.33,92.81,506.83,25.18,44.65,45.68,44.42,95.26,41.22,156.38-10.08,314.91-40.83,471.11-48.53,135.11-6.66,313.81,18.15,440.37.66,43.11-5.96,106.03-57.02,167.52-57.01,40.71,0,181.25,43.79,194.22,86.25,41.35,135.39-229.8,138.98-306.06,138.21-110.67-1.11-223.86-13.6-336.15-8.2-294.33,14.16-728.7,133.79-999.39-7.38-105.76-55.16-151.83-198.12-171.13-308.57-3.91-22.39,2.42-47.94-.86-71.1-105.45-745.71-122.94-1508.94-191.31-2263.21-11.43-126.09-14.1-259-32.54-383.21-1.13-7.64-17.86-72.84-19.54-76.4-8.86-18.84-63.37-30.26-85.53-42.59-42.9-23.85-46.71-96.54-33.12-140,2-6.38,58.03-101.21,62.52-105.38,66.1-61.53,226.14-31.48,310.94-40.83,203.72-22.45,461.94-100.4,670.7-144.77,183.99-39.11,560.07-151.75,727.75-76.44,45.93,20.63,67.03,39.26,33.94,82.89Z"/>
  <path class="cls-3" d="M7086.08,2379.87c-9.33-8.96-24.16-36.48-26.29-49.68-4.05-25.05-8.55-92.26-9.04-119.5-2.9-161.64,279.59-163.38,380.48-100.03,64.08,40.24,87.71,111.27,105.76,182.06,43.09,168.98,48.53,343.67,66.12,517.53,77.85,769.58,135.55,1568.51,281.58,2324.85,21.11,109.32,52.92,216.66,73.6,326.12,17.02,25.1,127.26-24.49,154.26-30.62,224.44-50.97,478.93,4.66,709.29-34.22,193.24-32.62,339.96-101.04,518.5-169.06,70.47-26.85,216.6-39.59,281.63,1.29,105.7,66.44-62.19,147.22-117.04,171.3-230.21,101.09-607.11,177.72-858.72,196.6-145.82,10.94-262.94-42.27-412.9,2.83-100.21,30.13-207.48,119.21-306.95,132.77-117.84,16.07-269.96,4.42-319.33-119.49-76.17-191.19-114.9-499.82-148.53-706.96-106.53-656.29-178.81-1325.81-239.3-1991.36-12.11-133.21-10.68-266.64-32.91-398.83-3.76-22.36-10.87-83.23-22.42-97.5-12.89-15.92-56.65-17.79-77.81-38.12Z"/>
  <path class="cls-2" d="M2102.67,2422.59c367.75,161.48,678.83,374.91,880.76,730.15,403.84,710.45,338.01,1999.15-430.65,2450.36-21.3,12.5-111.26,67.96-121.06,36.21-7.52-79.82-23.7-159.18-33.19-238.62-93.2-780.24-115.9-1569.33-208.05-2350.41-24.73-209.63-64.53-417.86-87.8-627.68Z"/>
  <path class="cls-2" d="M6299.84,3214.03l343.78,1215.28c-14.61,13.95-354.82-76.09-393.56-90.05-11.04-3.98-24.31-5.87-28.83-19.14-6.3-18.55-2.55-108-1.63-134.95,7.76-226.29,32.15-453.91,48.22-679.34,6.63-92.96,5.03-186.76,16.02-279.93,1.4-11.84,6.24-24.28,15.99-11.86Z"/>
</svg>