<?xml version="1.0" encoding="UTF-8"?>
<svg id="Layer_1" data-name="Layer 1" xmlns="http://www.w3.org/2000/svg" viewBox="0 0 2265 1874">
  <defs>
    <style>
      .cls-0 {
        fill: transparent;
      }
      .cls-1 {
        fill: #fff;
      }

      .cls-2 {
        fill: #ff0101;
      }

      .cls-3 {
        fill: #020101;
      }
    </style>
  </defs>
  <path class="cls-3" d="M2111.09,0c27.85,8.65,57.52,16.81,83.95,0h9.99c16.88,6.23,36.28,18.12,39.5,37.48,6.82,41-.63,102.49-1.61,145.44-4.91,215.73-3.38,432.43-9.99,648-3.65,118.89-12.43,241.34-8,360.16,1.77,47.31,10.2,94.61,12.16,141.84,4.62,111.15-10.98,219.82,19.62,330.37l8.28,84.72v22c-6.73,8.34-15.33,17.34-25.32,21.66-28.11,12.16-43.18-7.26-69.66-9.63-17.51-1.57-36.35-1.06-53.96-2.01-352.35-19.03-706-24.01-1059.3-17.94-90.69,1.56-181.49,1.59-271.92,9.93-78.29,7.21-156,21.33-234.13,29.74-147.27,15.85-294.09,11.28-441.52,28.23-5.77.66-12.53-.96-17.93.06-14.08,2.66-10.87,33.32-11.04,43.96h-4c-37.04-31.65-54.69-80.8-63.01-127.95s-8.48-95.38-6.87-144.97c1.9-58.61,11.25-111.44,9.99-170.16-2.56-120.18-10.65-241.43-14.16-361.84-.49-16.67,2.2-35.09-1.92-51.08.63-91.29-.84-182.72,0-274,1.58-171.04,7.74-343.15,6.08-515.08-.27-27.85-7.08-58.73,1.84-85.99,1.91-5.85,7.44-12.84,8.04-18.12.91-7.98-4.04-17.93-3.78-25.62.62-18.49,13.66-33.71,30.69-39.28,27.8-9.09,74.53-.65,106.02-1.92,81.83-3.28,167.25-19.64,249.9-25.96,78.03-5.97,155.73-7.52,233.93-9.94,314.9-9.73,629.91-10.07,945.47-8.16,143.68.87,288.34,7.27,431.66-5.93,15.58-1.43,34.91-2.59,48.98-7.99h51.97ZM2153.07,89.99c-13.59-2.61-25.37,5.13-37.54,7.45-80.9,15.46-187.97,14.31-271.38,16.47-443.54,11.5-887.66-14.91-1331.19,6.06l-127.89,6.04-288.75,26.08c-1.97,9.76,1.68,19.73,1.97,28.82,4.17,127.93.48,259.71,1.83,388.16,2.47,233.93,7.17,468.03,9.99,702,.93,77.21,5.87,156.59,2.18,234.01-2.81,58.89-19.06,119.53-22.06,177.92-.55,10.62-2.13,39.09,4.61,46.35,10.35,11.14,47.48,3.13,62.25,2.55,125.35-4.96,250.81-11.99,375.86-21.93,123.9-9.85,245.31-24.43,369.79-30,222.98-9.99,448.21-6.71,671.56-3.9,179.63,2.26,358.38,5.66,537.76,15.94,11.06.63,66.29,12.9,64.53-6.7-.31-3.45-10.11-22.37-12.11-29.76-17.81-66.05-14.64-157.51-17.34-226.65-5.41-138.2-15.4-277.62-13.99-415.84.69-67.64,8.81-129.44,11.83-196.16,7.13-157.5-1.26-316.56,2-474,.93-44.99,5.07-90.96,6.16-135.84.95-38.97-.88-78.13-.07-117.09Z"/>
  <path class="cls-0" d="M2265,1770v104H80.22c.17-10.64-3.04-41.29,11.04-43.96,5.4-1.02,12.16.6,17.93-.06,147.44-16.95,294.25-12.38,441.52-28.23,78.13-8.41,155.84-22.53,234.13-29.74,90.43-8.33,181.23-8.37,271.92-9.93,353.3-6.07,706.96-1.09,1059.3,17.94,17.61.95,36.45.44,53.96,2.01,26.48,2.37,41.54,21.79,69.66,9.63,10-4.32,18.59-13.32,25.32-21.66Z"/>
  <path class="cls-0" d="M2059.12,0c-14.07,5.4-33.4,6.55-48.98,7.99-143.33,13.2-287.99,6.8-431.66,5.93-315.56-1.91-630.58-1.56-945.47,8.16-78.2,2.42-155.91,3.97-233.93,9.94-82.65,6.32-168.07,22.68-249.9,25.96-31.49,1.26-78.22-7.18-106.02,1.92-17.03,5.57-30.08,20.8-30.69,39.28-.26,7.69,4.7,17.64,3.78,25.62-.6,5.28-6.13,12.28-8.04,18.12-8.92,27.27-2.11,58.14-1.84,85.99C8.01,400.85,1.85,572.96.27,744V0h2058.85Z"/>
  <path class="cls-0" d="M2205.03,0h59.97v1748l-8.28-84.72c-30.6-110.55-15.01-219.22-19.62-330.37-1.96-47.23-10.39-94.52-12.16-141.84-4.44-118.83,4.35-241.28,8-360.16,6.62-215.57,5.09-432.27,9.99-648,.98-42.95,8.43-104.45,1.61-145.44-3.22-19.35-22.62-31.24-39.5-37.48Z"/>
  <path class="cls-0" d="M76.23,1874H.27v-856c4.12,15.99,1.43,34.41,1.92,51.08,3.51,120.41,11.6,241.66,14.16,361.84,1.25,58.72-8.09,111.56-9.99,170.16-1.61,49.58-1.85,95.61,6.87,144.97s25.97,96.31,63.01,127.95Z"/>
  <path class="cls-0" d="M2195.04,0c-26.43,16.81-56.1,8.65-83.95,0h83.95Z"/>
  <path class="cls-2" d="M2153.07,89.99c-.81,38.96,1.02,78.12.07,117.09-1.09,44.87-5.23,90.84-6.16,135.84-3.26,157.44,5.13,316.5-2,474-3.02,66.72-11.14,128.52-11.83,196.16-1.41,138.22,8.58,277.63,13.99,415.84,2.71,69.14-.47,160.6,17.34,226.65,1.99,7.39,11.79,26.31,12.11,29.76,1.76,19.59-53.47,7.33-64.53,6.7-179.38-10.27-358.13-13.67-537.76-15.94-223.35-2.82-448.59-6.1-671.56,3.9-124.47,5.58-245.89,20.15-369.79,30-125.04,9.95-250.5,16.98-375.86,21.93-14.76.58-51.89,8.6-62.25-2.55-6.74-7.26-5.16-35.73-4.61-46.35,3-58.39,19.25-119.03,22.06-177.92,3.7-77.43-1.24-156.8-2.18-234.01-2.82-233.97-7.53-468.07-9.99-702-1.35-128.46,2.33-260.24-1.83-388.16-.3-9.09-3.95-19.06-1.97-28.82l288.75-26.08,127.89-6.04c443.53-20.97,887.65,5.44,1331.19-6.06,83.41-2.16,190.47-1.02,271.38-16.47,12.17-2.32,23.96-10.06,37.54-7.45ZM1765.46,1297.83c-1.05-12.21-3.14-24.65-4.15-36.85-6.07-73.2-3.04-148.48-2.1-222.06,2.64-206.52-19.08-393.88-41.88-597.94-4.23-37.85,2.93-106.86-54.94-102.98-42.08,2.82-44.67,44.3-43.1,77.08,1.86,38.91,9.3,80.44,12.06,119.94,7.76,111.14,11.36,222.98,13.93,334.06,3.2,138.12-2.64,276.67,18.36,413.63,6.41,41.79,14.74,102.87,66.89,109.07,60.35,7.17,110.13,12.41,171.43,5.96,22.26-2.34,48.19-9.53,70.29-9.78,14.16-.17,28.78,3.32,43.97,2.11,67.45-5.37,67.59-88.96,1.68-95.83-68.12-7.1-133.01,16.25-199.62,11.73-17.63-1.2-35.27-6.27-52.82-8.15ZM1377.66,951.82l-13.88-436.55,169.72-60.18c23.98-12.08,51.97-38.74,47.98-68.2-2.01-14.82-31.37-25.82-45.01-26.97-43.37-3.66-113.23,34.33-157.44,48.62-24.64,7.96-62.81,14.07-84.06,23.89-19.41,8.97-28.01,25.6-29.5,46.48-3.27,45.84,7.43,99.45,4.18,146.18-5.07,187.83-5.27,376.21-.18,563.99,1.11,41.07-2.33,111.15,10,147.99,13.04,38.95,63.59,75.03,105,72.89,37.71-1.95,154.47-31.69,182.75-55.14,42.32-35.09,11.69-96.96-43.75-81.78-44.21,12.1-79.99,33.13-129.52,38.38-8.76.93-16.97,1.97-20.93-7.96-3.46-8.7-1.86-44.65-1.6-56.56.86-39.14,5-78.84,6.16-117.84.76-25.56-.96-51.28.18-76.82,33.23-11.73,106.46-19.43,118.11-58.82,11.45-38.71-22.05-60.64-57.17-57.19-10.18,1-57.94,18.19-61.05,15.57ZM429.62,378.59c-47.18,3.26-101.79,16.75-95.32,76.2,2.22,20.43,7.7,42.33,9.76,64.22,13.53,143.79,16.4,295.24,21.92,440.07.18,4.73,2.02,9.11,2.16,13.84l5.83,270.16,9.93,114.07-1.67,3.94c-48.09,23.76-36.47,85.59,16.83,90.89,43.99,4.37,110.1,4.49,152.42-7.46,124.18-35.05,192.11-159.52,233.84-272.03,67.33-181.52,36.07-417.65-66.63-580.32-65.59-103.9-151.77-223.06-289.08-213.58ZM1023.94,1305.74c-26.27-45.9-34.38-98.78-40.2-150.76-10.69-95.45-13.2-192.27-22.01-287.97-10.44-113.29-32.91-226.33-29.99-340.03.52-20.19,2.72-44.78,2.11-64.08-2.39-75.77-90.15-76.22-96-5.86-9.29,111.75,4.14,224.43,9.94,335.99,8.06,155.03.86,367,61.05,508.92,89.31,210.58,221.12,88.19,258.17-71.56,23.92-103.13,23.87-219.42,30.63-325.36,8.72-136.74,20.6-260.34,1.72-397.76-5.93-43.17-19.49-139.43-81.81-126.37-57.77,12.11-23.71,90.58-19.88,128.12,6.85,67.22,3.89,138.63,1.93,205.91-3.27,112.03-8.58,224.03-11.99,336-2.29,74.88-2.19,175.65-46.63,239.35-2.96,4.24-11.39,18.73-17.01,15.48Z"/>
  <path class="cls-1" d="M429.62,378.59c137.31-9.49,223.49,109.68,289.08,213.58,102.7,162.67,133.95,398.8,66.63,580.32-41.73,112.51-109.66,236.98-233.84,272.03-42.32,11.94-108.43,11.83-152.42,7.46-53.3-5.29-64.92-67.13-16.83-90.89l1.67-3.94-9.93-114.07-5.83-270.16c-.14-4.73-1.98-9.1-2.16-13.84-5.52-144.83-8.39-296.27-21.92-440.07-2.06-21.89-7.54-43.8-9.76-64.22-6.47-59.45,48.14-72.94,95.32-76.2ZM487.99,1358.01c64.93-.98,123.34-52.93,154.26-106.67,49.77-86.49,76.6-182.23,73.7-282.42-4.63-159.82-37.48-283.17-137.21-408.71-34.56-43.5-81.16-95.61-142.61-86.11,5.04,99.97,20.14,199.27,29.87,298.91,16.97,173.83,24.91,335.24,21.91,509.91-.43,25.01.49,50.1.07,75.09Z"/>
  <path class="cls-1" d="M1023.94,1305.74c5.62,3.25,14.05-11.24,17.01-15.48,44.44-63.7,44.34-164.46,46.63-239.35,3.42-111.97,8.72-223.97,11.99-336,1.96-67.27,4.93-138.68-1.93-205.91-3.83-37.55-37.88-116.02,19.88-128.12,62.33-13.06,75.88,83.19,81.81,126.37,18.88,137.43,7,261.03-1.72,397.76-6.76,105.94-6.71,222.23-30.63,325.36-37.05,159.75-168.86,282.14-258.17,71.56-60.19-141.92-52.99-353.89-61.05-508.92-5.8-111.56-19.24-224.24-9.94-335.99,5.85-70.36,93.61-69.9,96,5.86.61,19.3-1.59,43.89-2.11,64.08-2.91,113.7,19.56,226.74,29.99,340.03,8.82,95.7,11.33,192.53,22.01,287.97,5.82,51.98,13.93,104.86,40.2,150.76Z"/>
  <path class="cls-1" d="M1377.66,951.82c3.1,2.61,50.87-14.57,61.05-15.57,35.12-3.45,68.62,18.48,57.17,57.19-11.66,39.4-84.88,47.09-118.11,58.82-1.14,25.54.59,51.26-.18,76.82-1.17,38.99-5.3,78.7-6.16,117.84-.26,11.91-1.86,47.87,1.6,56.56,3.95,9.93,12.17,8.89,20.93,7.96,49.54-5.26,85.32-26.28,129.52-38.38,55.45-15.18,86.07,46.69,43.75,81.78-28.27,23.44-145.03,53.19-182.75,55.14-41.41,2.14-91.96-33.94-105-72.89-12.33-36.84-8.89-106.92-10-147.99-5.09-187.78-4.89-376.15.18-563.99,3.25-46.73-7.45-100.34-4.18-146.18,1.49-20.88,10.1-37.51,29.5-46.48,21.25-9.82,59.43-15.93,84.06-23.89,44.21-14.29,114.07-52.27,157.44-48.62,13.63,1.15,43,12.15,45.01,26.97,3.99,29.46-24,56.12-47.98,68.2l-169.72,60.18,13.88,436.55Z"/>
  <path class="cls-1" d="M1765.46,1297.83c17.55,1.88,35.19,6.95,52.82,8.15,66.61,4.52,131.5-18.83,199.62-11.73,65.91,6.87,65.76,90.46-1.68,95.83-15.19,1.21-29.81-2.28-43.97-2.11-22.1.26-48.03,7.44-70.29,9.78-61.31,6.45-111.09,1.21-171.43-5.96-52.16-6.2-60.48-67.28-66.89-109.07-21-136.96-15.16-275.52-18.36-413.63-2.57-111.08-6.17-222.93-13.93-334.06-2.76-39.5-10.19-81.02-12.06-119.94-1.57-32.78,1.03-74.26,43.1-77.08,57.87-3.88,50.71,65.13,54.94,102.98,22.8,204.05,44.52,391.41,41.88,597.94-.94,73.58-3.97,148.86,2.1,222.06,1.01,12.2,3.1,24.64,4.15,36.85Z"/>
  <path class="cls-2" d="M487.99,1358.01c.42-24.99-.5-50.08-.07-75.09,2.99-174.67-4.94-336.07-21.91-509.91-9.73-99.64-24.82-198.94-29.87-298.91,61.45-9.5,108.05,42.61,142.61,86.11,99.74,125.54,132.59,248.89,137.21,408.71,2.9,100.2-23.93,195.93-73.7,282.42-30.92,53.73-89.34,105.69-154.26,106.67Z"/>
</svg>