<?xml version="1.0" encoding="UTF-8"?>
<svg id="Layer_1_Image" data-name="Layer 1 Image" xmlns="http://www.w3.org/2000/svg" viewBox="0 0 557.67 457.62">
  <defs>
    <style>
      .cls-1 {
        fill: #ff9c2a;
      }

      .cls-2 {
        fill: transparent;
      }
    </style>
  </defs>
  <path class="cls-2" d="M0,0v453.87h546.63V0H0ZM546.08,427.49c-.57,2.22-5.5,5.44-7.59,6.09-5.37,1.68-8.61-1.45-13.48-2.47-4.74-.99-8.8-.39-13.5-.63-31.35-1.58-62.66-3.38-94.05-3.97-67.71-1.27-138.09-2.21-205.72.44-31.88,1.25-63.55,7.68-95.4,10.13-29.45,2.27-60.11,1.1-89.24,5.25-1.39.2-2.81-.19-4.16.25-.19.14-1.12,3.17-1.19,3.66-.17,1.2.26,6.68-.76,6.73-1.97-1.18-3.82-2.64-5.31-4.4-15.39-18.26-13.63-54.38-12.16-77.07.24-3.65,1.83-7.56,1.83-11.02-.04-21.64-1.56-43.29-2.27-64.88-2.6-78.98.14-158.05-.4-237.13-.05-7.07-1.36-14.46.55-21.48.41-1.49,1.85-3.42,1.98-4.64.29-2.71-1.43-4.54-.22-8.61,3.42-11.5,17.28-7.73,26.17-7.83,17.2-.2,34.52-3.29,51.64-4.87,36.68-3.4,73.49-4.2,110.36-4.88,57.23-1.06,114.48-1.44,171.76-.85,44.5.46,88.79,2.39,133.05-2.98l6.95-.15c5.19-.36,12.04,2.29,16.77,2.26,3.02-.01,4.94-2.85,10.04-2.13,3.92.56,9.09,4.88,9.63,8.92.9,6.85-.06,15.53.44,22.55-2.81,52.83-1.16,106.01-2.69,158.9-.91,31.78-3.37,64.5-2.21,96.29.44,12.17,2.32,24.42,2.69,36.61.31,10.33-.41,20.65-.48,30.91-.06,8.86.27,14.06,1.65,22.66,2.14,13.25,4.87,28.95,5.45,42.24.07,1.55.22,4.74-.13,6.09Z"/>
  <path class="cls-2" d="M521.07,397.08c-3.95-24.8-3.47-50.82-4.47-75.88-1.2-29.95-3.78-61.35-2.22-91.41.47-9.09,2.32-18.2,2.69-27.34,1.55-39.27-.48-78.67.43-117.9.02-.85.51-1.74.46-2.64l-.04-19.46.92-10.12-.08-27.99c-.81-1.28-7.8,1.36-9.48,1.65-8.55,1.51-17.41,1.64-26.02,2.24-58.44,4.03-117.2,1.76-175.73,1.36-75.92-.51-151.59-1.79-227.38,4.39-18.32,1.49-36.62,3.23-54.92,4.91.29,17.12.15,34.27.38,51.41.51,38.52,1.04,77.19,1.36,115.64.42,49.66,2.02,99.18,2.17,148.82.06,19.53-5.03,38.69-5.72,57.83-.31,8.66,7.32,6.09,13.01,5.93,16.27-.45,32.75-1.64,49.05-2.61,31.11-1.85,62.08-4.4,93.15-7.52,32.35-3.24,62.83-3.78,95.34-4,79.14-.55,156.95.02,235.8,4.44,2.91.16,11.17,1.64,13.27.46,3.1-1.75.41-4.09-.37-6.3-.68-1.93-1.26-3.89-1.59-5.92ZM140.6,209.46c-6.94,6.52-14.53,12.18-22.56,17.4-1.43.93-7.2,3.61-7.57,4.79.47,4.83.22,9.67.34,14.51.39,15.93.87,31.72-.87,47.66-.91,8.34-3.24,16.9-3.97,25.17-.21,2.43.26,4.96-.12,7.39-2.03,13.08-20.55,14.01-24.83.78-2.96-9.13,2.72-28.65,3.75-39.08,2.77-28.1-1.56-55.64-.89-83.46.62-26.01,3.85-52.25,3.99-78.12.02-3.34-1.17-2.63-2.86-4.21-4.63-4.33-6.53-8.72-3.98-14.99,2.05-5.04,4.37-4.77,7.94-7.52,1.59-1.22,2.33-3.01,4.05-4.33,4.47-3.42,8.43-3.39,13.42-1.21.92.4,1.44,1.38,2.41,1.56,3.23.62,9.62-.72,13.31-.71,18.63.04,34.91,9.75,44.21,25.75,16.54,28.45-4.34,68.49-25.78,88.62ZM271.97,114.99c-.39,40.7-2.05,83.63-10.25,123.53-4.18,20.34-9.62,44.75-25.32,59.23-38.84,35.85-52.87-21.63-54.93-50.74-2.28-32.09,1.28-64.28,2.66-96.23.4-9.19-.25-19.14.43-28.27.66-8.8,6.14-16.4,15.91-14.59,15,2.77,8.37,22.72,9.71,33.15-1.28,38.42-8.56,86.62-.34,123.92.5,2.27,4.34,15.14,5.6,16.04,1.12.81,4.54-2.68,5.33-3.55,7.58-8.38,10.99-22.84,13.56-33.68,9.03-38.02,10.52-77.51,12.06-116.42.29-7.38-.7-20.06,2.32-26.38,5.25-11,19.94-8.73,23.05,2.74,1.19,4.38.24,7.19.2,11.24ZM375.94,307.7c-5.16,7.56-13.34,4.78-20.73,4.85-16.44.15-32.98,2.93-49.43,3.14-18.05.23-25.22-5.24-25.85-23.63-.51-14.71,1.46-31.07,2.66-45.92,2.7-33.52,6.46-67.79,7.52-101.53.39-12.52-1.09-26.65-.01-38.86.54-6.06,4.58-13.26,11.23-13.94,6.75-.69,12.2,2.3,14,9.01,1.26,4.69-.14,13.17-.09,18.63.55,53.53-5.14,106.44-9.26,159.8-.27,3.45-1.32,6.86-.88,10.38,4.32-.15,8.7.2,13.02,0,14-.68,38.41-5.52,51.19-.84,7.76,2.84,11.48,11.81,6.63,18.92ZM479.61,318.65c-6.97,2.06-20.55,2.53-28.12,2.79-11.01.37-22.2-1.06-33.15-.48-6.3.34-11.61,2.68-17.81.18-5.85-2.36-8.61-7.3-9.65-13.31-.82-41.22-1.49-82.84,1.21-123.93,1.13-17.18,3.37-34.4,3.99-51.64.26-7.21-1.39-20.93,1.83-26.87,4-7.37,14.45-9.09,20.23-2.73,6.21,6.84,3.46,24.31,3.07,33.09-1.29,29.45-4.66,58.84-5.3,88.3-.52,23.8.95,47.53.46,71.32,14.35-.54,29.21.7,43.51.02,4.92-.24,10.23-1.56,15-1.78,17.76-.82,20.93,20.26,4.73,25.04Z"/>
  <rect class="cls-1" x="18.83" y="23" width="512.22" height="397.14"/>
  <path d="M540.76,379.16c-1.39-8.6-1.72-13.81-1.65-22.66.07-10.26.79-20.57.48-30.91-.37-12.19-2.24-24.43-2.69-36.61-1.16-31.78,1.3-64.51,2.21-96.29,1.52-52.9-.13-106.08,2.69-158.9-.5-7.02.46-15.7-.44-22.55-.53-4.04-5.7-8.36-9.63-8.92-5.09-.73-7.02,2.11-10.04,2.13-4.73.02-11.58-2.63-16.77-2.26l-6.95.15c-44.26,5.37-88.55,3.44-133.05,2.98-57.28-.6-114.53-.21-171.76.85-36.87.68-73.68,1.48-110.36,4.88-17.12,1.59-34.45,4.67-51.64,4.87-8.89.11-22.75-3.67-26.17,7.83-1.21,4.07.51,5.9.22,8.61-.13,1.22-1.58,3.15-1.98,4.64-1.91,7.02-.6,14.41-.55,21.48.54,79.08-2.2,158.15.4,237.13.71,21.59,2.23,43.24,2.27,64.88,0,3.46-1.59,7.37-1.83,11.02-1.48,22.68-3.24,58.81,12.16,77.07,1.49,1.76,3.34,3.22,5.31,4.4,1.03-.05.6-5.53.76-6.73.07-.5,1-3.53,1.19-3.66,1.36-.44,2.78-.05,4.16-.25,29.14-4.15,59.79-2.97,89.24-5.25,31.84-2.46,63.51-8.88,95.4-10.13,67.63-2.66,138.01-1.71,205.72-.44,31.39.59,62.7,2.39,94.05,3.97,4.69.24,8.75-.36,13.5.63,4.87,1.02,8.11,4.14,13.48,2.47,2.09-.65,7.03-3.88,7.59-6.09.35-1.35.19-4.54.13-6.09-.58-13.29-3.31-28.99-5.45-42.24ZM523.03,409.3c-2.1,1.18-10.36-.3-13.27-.46-78.85-4.42-156.65-4.99-235.8-4.44-32.52.22-63,.76-95.34,4-31.08,3.11-62.04,5.67-93.15,7.52-16.29.97-32.78,2.17-49.05,2.61-5.68.16-13.32,2.73-13.01-5.93.69-19.14,5.78-38.29,5.72-57.83-.16-49.64-1.75-99.17-2.17-148.82-.33-38.45-.85-77.11-1.36-115.64-.23-17.13-.09-34.28-.38-51.41,18.3-1.68,36.6-3.41,54.92-4.91,75.79-6.18,151.46-4.9,227.38-4.39,58.54.39,117.29,2.67,175.73-1.36,8.61-.59,17.47-.72,26.02-2.24,1.68-.3,8.67-2.93,9.48-1.65l.08,27.99-.92,10.12.04,19.46c.05.9-.44,1.78-.46,2.64-.91,39.22,1.12,78.63-.43,117.9-.36,9.14-2.22,18.25-2.69,27.34-1.55,30.06,1.02,61.47,2.22,91.41,1.01,25.06.53,51.08,4.47,75.88.32,2.03.91,3.98,1.59,5.92.77,2.21,3.47,4.55.37,6.3Z"/>
  <path d="M248.71,101.01c-3.02,6.32-2.02,19-2.32,26.38-1.54,38.91-3.03,78.41-12.06,116.42-2.57,10.84-5.98,25.31-13.56,33.68-.79.87-4.21,4.36-5.33,3.55-1.26-.9-5.1-13.77-5.6-16.04-8.22-37.3-.94-85.5.34-123.92-1.34-10.43,5.29-30.39-9.71-33.15-9.78-1.8-15.26,5.79-15.91,14.59-.68,9.13-.03,19.08-.43,28.27-1.39,31.95-4.94,64.14-2.66,96.23,2.06,29.11,16.09,86.59,54.93,50.74,15.7-14.49,21.14-38.9,25.32-59.23,8.2-39.9,9.86-82.83,10.25-123.53.04-4.05.99-6.86-.2-11.24-3.11-11.48-17.8-13.75-23.05-2.74Z"/>
  <path d="M122.16,95.09c-3.7,0-10.08,1.33-13.31.71-.97-.18-1.49-1.16-2.41-1.56-4.98-2.18-8.95-2.21-13.42,1.21-1.72,1.32-2.47,3.12-4.05,4.33-3.57,2.74-5.88,2.48-7.94,7.52-2.55,6.27-.66,10.66,3.98,14.99,1.69,1.58,2.88.87,2.86,4.21-.14,25.87-3.37,52.12-3.99,78.12-.66,27.82,3.67,55.36.89,83.46-1.03,10.43-6.7,29.95-3.75,39.08,4.29,13.23,22.81,12.3,24.83-.78.38-2.43-.09-4.96.12-7.39.72-8.28,3.06-16.84,3.97-25.17,1.73-15.94,1.26-31.73.87-47.66-.12-4.84.13-9.68-.34-14.51.37-1.19,6.14-3.87,7.57-4.79,8.03-5.22,15.62-10.88,22.56-17.4,21.44-20.13,42.32-60.17,25.78-88.62-9.3-16-25.58-25.71-44.21-25.75ZM144.14,157.6c-5.67,17.11-16.38,31.43-31.15,41.7-.47.33-2.71,1.97-3.05,1.58l3.59-78.75c.28-.82,1.99-1.08,2.81-1.16,9.88-1.01,18.46.71,24.94,8.62,7.43,9.07,6.35,17.48,2.86,28.01Z"/>
  <path d="M474.88,293.61c-4.76.22-10.07,1.54-15,1.78-14.3.69-29.16-.55-43.51-.02.49-23.8-.97-47.53-.46-71.32.64-29.46,4-58.85,5.3-88.3.39-8.79,3.14-26.26-3.07-33.09-5.78-6.36-16.24-4.65-20.23,2.73-3.22,5.94-1.57,19.66-1.83,26.87-.61,17.25-2.86,34.47-3.99,51.64-2.7,41.09-2.03,82.72-1.21,123.93,1.04,6.01,3.8,10.96,9.65,13.31,6.19,2.49,11.51.15,17.81-.18,10.95-.59,22.14.85,33.15.48,7.57-.26,21.15-.73,28.12-2.79,16.2-4.78,13.03-25.86-4.73-25.04Z"/>
  <path d="M369.31,288.78c-12.78-4.68-37.18.16-51.19.84-4.32.21-8.7-.14-13.02,0-.44-3.52.61-6.93.88-10.38,4.12-53.36,9.81-106.27,9.26-159.8-.06-5.46,1.35-13.94.09-18.63-1.8-6.71-7.25-9.7-14-9.01-6.65.68-10.69,7.88-11.23,13.94-1.08,12.21.4,26.35.01,38.86-1.06,33.74-4.82,68.02-7.52,101.53-1.2,14.84-3.17,31.2-2.66,45.92.63,18.39,7.81,23.87,25.85,23.63,16.44-.21,32.99-2.99,49.43-3.14,7.39-.07,15.57,2.71,20.73-4.85,4.85-7.11,1.13-16.08-6.63-18.92Z"/>
</svg>